# Blender 3.4.0
# www.blender.org
mtllib fire.mtl
o pPlane57.001
v -213.327957 102.299377 193.320694
v -211.601486 101.561867 193.417114
v -211.575867 101.636421 193.528427
v -213.302322 102.373932 193.432007
v -213.274261 102.424759 193.318436
v -211.547806 101.687248 193.414856
v -211.583649 101.237755 193.442627
v -209.035950 100.149429 193.584915
v -209.192886 99.809792 193.797104
v -211.740585 100.898117 193.654816
v -211.144547 102.289146 193.622269
v -208.596848 101.200821 193.764557
v -208.737961 100.844879 193.568649
v -211.285660 101.933205 193.426361
vn -0.3289 -0.8290 -0.4522
vn -0.3482 -0.7398 0.5757
vn 0.0407 -0.0354 -0.9985
vn -0.0317 -0.2022 -0.9788
vn -0.1530 -0.4718 -0.8683
vn 0.2212 0.4015 -0.8888
vn 0.1079 0.1235 -0.9865
vt 0.385253 0.625122
vt 0.385253 0.581887
vt 0.388391 0.581887
vt 0.388391 0.625122
vt 0.382116 0.625122
vt 0.382116 0.581887
vt 0.218050 0.572857
vt 0.218050 0.639830
vt 0.228434 0.639830
vt 0.228434 0.572857
vt 0.189395 0.572857
vt 0.189395 0.639830
vt 0.199779 0.639830
vt 0.199779 0.572857
s 1
usemtl 1
f 1/1/1 2/2/1 3/3/2 4/4/2
f 5/5/3 6/6/3 2/2/1 1/1/1
f 7/7/4 8/8/4 9/9/5 10/10/5
f 11/11/6 12/12/6 13/13/7 14/14/7
f 7/7/4 14/14/7 13/13/7 8/8/4
