# Blender 3.4.0
# www.blender.org
mtllib ivy.mtl
o ivy_2_lod_2.002
v 3.562143 3.473161 4.817581
v 3.571114 3.302361 4.834223
v 4.935374 3.301238 4.625538
v 3.207711 3.611092 4.646003
v 4.323162 3.038894 4.711816
v 3.539409 3.293175 4.833799
v 3.254675 3.930532 4.680396
v 5.388198 3.376722 4.726969
v 5.180497 3.912943 4.656331
v 3.357078 3.276900 4.810548
v 4.297551 3.401150 4.831368
v 4.674797 2.822860 4.678774
v 3.748865 3.143141 4.754131
v 5.073178 3.567196 4.713086
v 5.483260 3.666760 4.684361
v 5.263542 3.029939 4.595400
v 1.724941 3.498215 4.904119
v 1.733913 3.327415 4.920762
v 3.098172 3.326292 4.712076
v 1.370510 3.636146 4.732542
v 2.485960 3.063948 4.798355
v 1.702207 3.318229 4.920338
v 1.417474 3.955586 4.766935
v 3.550997 3.401776 4.813508
v 3.343296 3.937997 4.742869
v 1.519876 3.301954 4.897087
v 2.460350 3.426204 4.917907
v 2.837595 2.847914 4.765313
v 1.911664 3.168195 4.840670
v 3.235976 3.592250 4.799624
v 3.646059 3.691814 4.770900
v 3.426340 3.054993 4.681939
v -0.015775 3.513987 4.981855
v -0.006803 3.343186 4.998497
v 1.357456 3.342064 4.789812
v -0.370207 3.651917 4.810277
v 0.745244 3.079720 4.876090
v -0.038509 3.334001 4.998073
v -0.323243 3.971358 4.844670
v 1.810280 3.417548 4.891243
v 1.602579 3.953769 4.820605
v -0.220840 3.317725 4.974823
v 0.719633 3.441976 4.995642
v 1.096879 2.863686 4.843049
v 0.170947 3.183967 4.918405
v 1.495260 3.608022 4.877360
v 1.905342 3.707586 4.848636
v 1.685624 3.070765 4.759674
v -1.774014 3.546049 5.044532
v -1.765043 3.375249 5.061174
v -0.400783 3.374126 4.852489
v -2.128446 3.683980 4.872955
v -1.012996 3.111782 4.938767
v -1.796748 3.366063 5.060750
v -2.081482 4.003420 4.907348
v 0.052041 3.449610 4.953920
v -0.155660 3.985831 4.883282
v -1.979079 3.349787 5.037500
v -1.038606 3.474038 5.058320
v -0.661360 2.895748 4.905726
v -1.587292 3.216029 4.981083
v -0.262979 3.640084 4.940037
v 0.147103 3.739648 4.911313
v -0.072615 3.102827 4.822351
v -3.564138 3.548158 5.132347
v -3.555166 3.377358 5.148989
v -2.190907 3.376235 4.940304
v -3.918570 3.686089 4.960769
v -2.803119 3.113891 5.026582
v -3.586872 3.368172 5.148565
v -3.871606 4.005529 4.995162
v -1.738082 3.451719 5.041735
v -1.945784 3.987940 4.971097
v -3.769203 3.351897 5.125314
v -2.828730 3.476147 5.146134
v -2.451484 2.897857 4.993540
v -3.377416 3.218138 5.068897
v -2.053103 3.642193 5.027852
v -1.643021 3.741757 4.999127
v -1.862739 3.104937 4.910166
vn 0.0729 0.8454 0.5291
vn 0.3174 -0.0319 0.9478
vn 0.1033 0.0308 0.9942
vn 0.2096 -0.2900 0.9338
vn 0.1545 -0.1015 0.9828
vn 0.0569 -0.1573 0.9859
vn -0.0389 -0.2098 0.9770
vn -0.2191 0.0435 0.9747
vn -0.4456 -0.0549 0.8936
vn 0.0210 0.1386 0.9901
vn -0.1819 -0.0788 0.9802
vn -0.1302 0.0261 0.9911
vn -0.3183 0.3004 0.8991
vn 0.1919 0.1484 0.9701
vn -0.5614 -0.1094 0.8203
vn 0.4885 0.1100 0.8656
vn 0.2004 -0.1492 0.9683
vn 0.1206 0.0447 0.9917
vn 0.4994 -0.0128 0.8663
vt 0.802886 0.259971
vt 0.842133 0.256339
vt 0.833772 0.781796
vt 0.757605 0.093720
vt 0.898393 0.526475
vt 0.697290 0.139291
vt 0.824527 0.954457
vt 0.719904 0.898359
vt 0.694703 0.880752
vt 0.847664 0.174872
vt 0.818050 0.532091
vt 0.942471 0.656773
vt 0.874241 0.323633
vt 0.769276 0.840055
vt 0.758308 0.996484
vt 0.907927 0.882837
vt 0.802886 0.259971
vt 0.842133 0.256339
vt 0.833772 0.781796
vt 0.757605 0.093720
vt 0.898393 0.526475
vt 0.697290 0.139291
vt 0.824527 0.954457
vt 0.719904 0.898359
vt 0.694703 0.880752
vt 0.847664 0.174872
vt 0.818050 0.532091
vt 0.942471 0.656773
vt 0.874241 0.323633
vt 0.769276 0.840055
vt 0.758308 0.996484
vt 0.907927 0.882837
vt 0.802886 0.259971
vt 0.842133 0.256339
vt 0.833772 0.781796
vt 0.757605 0.093720
vt 0.898393 0.526475
vt 0.697290 0.139291
vt 0.824527 0.954457
vt 0.719904 0.898359
vt 0.694703 0.880752
vt 0.847664 0.174872
vt 0.818050 0.532091
vt 0.942471 0.656773
vt 0.874241 0.323633
vt 0.769276 0.840055
vt 0.758308 0.996484
vt 0.907927 0.882837
vt 0.802886 0.259971
vt 0.842133 0.256339
vt 0.833772 0.781796
vt 0.757605 0.093720
vt 0.898393 0.526475
vt 0.697290 0.139291
vt 0.824527 0.954457
vt 0.719904 0.898359
vt 0.694703 0.880752
vt 0.847664 0.174872
vt 0.818050 0.532091
vt 0.942471 0.656773
vt 0.874241 0.323633
vt 0.769276 0.840055
vt 0.758308 0.996484
vt 0.907927 0.882837
vt 0.802886 0.259971
vt 0.842133 0.256339
vt 0.833772 0.781796
vt 0.757605 0.093720
vt 0.898393 0.526475
vt 0.697290 0.139291
vt 0.824527 0.954457
vt 0.719904 0.898359
vt 0.694703 0.880752
vt 0.847664 0.174872
vt 0.818050 0.532091
vt 0.942471 0.656773
vt 0.874241 0.323633
vt 0.769276 0.840055
vt 0.758308 0.996484
vt 0.907927 0.882837
s 1
usemtl ivy
f 1/1/1 11/11/1 4/4/1
f 14/14/2 11/11/3 3/3/4
f 1/1/5 13/13/6 11/11/7
f 9/9/8 8/7/9 15/15/10
f 4/4/11 11/11/3 7/6/12
f 10/10/13 1/1/13 4/4/13
f 7/6/12 11/11/3 9/9/14
f 9/8/14 11/11/3 14/14/2
f 9/9/8 16/16/15 8/7/9
f 1/1/5 2/2/16 13/13/6
f 11/11/3 5/5/17 3/3/4
f 5/5/17 12/12/18 3/3/4
f 14/14/2 16/16/19 9/9/14
f 17/17/1 27/27/1 20/20/1
f 30/30/2 27/27/3 19/19/4
f 17/17/5 29/29/6 27/27/7
f 25/25/8 24/23/9 31/31/10
f 20/20/11 27/27/3 23/22/12
f 26/26/13 17/17/13 20/20/13
f 23/22/12 27/27/3 25/25/14
f 25/24/14 27/27/3 30/30/2
f 25/25/8 32/32/15 24/23/9
f 17/17/5 18/18/16 29/29/6
f 27/27/3 21/21/17 19/19/4
f 21/21/17 28/28/18 19/19/4
f 30/30/2 32/32/19 25/25/14
f 33/33/1 43/43/1 36/36/1
f 46/46/2 43/43/3 35/35/4
f 33/33/5 45/45/6 43/43/7
f 41/41/8 40/39/9 47/47/10
f 36/36/11 43/43/3 39/38/12
f 42/42/13 33/33/13 36/36/13
f 39/38/12 43/43/3 41/41/14
f 41/40/14 43/43/3 46/46/2
f 41/41/8 48/48/15 40/39/9
f 33/33/5 34/34/16 45/45/6
f 43/43/3 37/37/17 35/35/4
f 37/37/17 44/44/18 35/35/4
f 46/46/2 48/48/19 41/41/14
f 49/49/1 59/59/1 52/52/1
f 62/62/2 59/59/3 51/51/4
f 49/49/5 61/61/6 59/59/7
f 57/57/8 56/55/9 63/63/10
f 52/52/11 59/59/3 55/54/12
f 58/58/13 49/49/13 52/52/13
f 55/54/12 59/59/3 57/57/14
f 57/56/14 59/59/3 62/62/2
f 57/57/8 64/64/15 56/55/9
f 49/49/5 50/50/16 61/61/6
f 59/59/3 53/53/17 51/51/4
f 53/53/17 60/60/18 51/51/4
f 62/62/2 64/64/19 57/57/14
f 65/65/1 75/75/1 68/68/1
f 78/78/2 75/75/3 67/67/4
f 65/65/5 77/77/6 75/75/7
f 73/73/8 72/71/9 79/79/10
f 68/68/11 75/75/3 71/70/12
f 74/74/13 65/65/13 68/68/13
f 71/70/12 75/75/3 73/73/14
f 73/72/14 75/75/3 78/78/2
f 73/73/8 80/80/15 72/71/9
f 65/65/5 66/66/16 77/77/6
f 75/75/3 69/69/17 67/67/4
f 69/69/17 76/76/18 67/67/4
f 78/78/2 80/80/19 73/73/14
l 6 2
l 22 18
l 38 34
l 54 50
l 70 66
