# Blender 3.4.0
# www.blender.org
mtllib bush2.mtl
o Plane
v -2.216284 -1.997662 -0.019964
v 1.590432 -1.997662 -0.019964
v -2.216284 1.809054 -0.019964
v 1.590432 1.809054 -0.019964
v -0.177121 -1.964203 1.856649
v -0.177121 -1.964203 -1.950067
v -0.177121 1.842513 1.856649
v -0.177121 1.842513 -1.950067
vn -0.0000 -0.0000 1.0000
vn 1.0000 -0.0000 -0.0000
vt 0.000000 0.000000
vt 1.000000 0.000000
vt 0.000000 1.000000
vt 1.000000 1.000000
vt 0.000000 0.000000
vt 1.000000 0.000000
vt 0.000000 1.000000
vt 1.000000 1.000000
s 0
usemtl bush.001
f 1/1/1 2/2/1 4/4/1 3/3/1
usemtl 
f 5/5/2 6/6/2 8/8/2 7/7/2
